<svg width="52" height="41" viewBox="0 0 52 41" fill="none" xmlns="http://www.w3.org/2000/svg">
<path d="M0.700155 41H27.1359C27.6563 41 27.9948 40.3586 27.7622 39.8133L27.2185 38.54L26.0808 36.1825L26.0221 36.0681C25.9599 35.9467 25.8719 35.8462 25.7667 35.7764C25.6615 35.7067 25.5427 35.67 25.4218 35.67H8.66407C8.1225 35.67 7.7859 34.9806 8.06089 34.4339L19.0052 12.6713C19.2751 12.1348 19.9371 12.1323 20.2096 12.6669L34.4539 40.6005C34.516 40.7223 34.6041 40.8231 34.7094 40.8931C34.8148 40.9632 34.9339 41 35.055 41H51.2988C51.8377 41 52.1747 40.3165 51.9051 39.77L32.4968 0.41C32.4354 0.285347 32.347 0.181835 32.2406 0.109865C32.1341 0.0378952 32.0134 3.65656e-06 31.8905 0H28.4104C27.8761 0 27.5387 0.672605 27.799 1.21934L43.6169 34.4507C43.8771 34.9974 43.5397 35.67 43.0055 35.67H37.773C37.6506 35.67 37.5303 35.6324 37.4242 35.561C37.3181 35.4896 37.2298 35.3868 37.1683 35.2629L20.332 1.43213C20.2704 1.30824 20.1821 1.20544 20.076 1.134C19.9699 1.06256 19.8496 1.02497 19.7272 1.025H19.6569C19.5344 1.02501 19.414 1.06264 19.3078 1.13416C19.2017 1.20567 19.1134 1.30856 19.0517 1.43254L0.095046 39.5787C0.0327638 39.7039 -3.40181e-05 39.8463 2.6477e-08 39.9912V40.18C2.6477e-08 40.3975 0.0737656 40.606 0.20507 40.7598C0.336375 40.9136 0.514462 41 0.700155 41Z" fill="#19A7CE"/>
</svg>
