<svg width="863" height="646" viewBox="0 0 863 646" fill="none" xmlns="http://www.w3.org/2000/svg">
<path d="M782 40.0444C782 69.1444 782 98.1445 782 127.244C782 173.544 782 219.844 782 266.144C782 276.744 782 287.344 782 298.044C795.3 284.744 808.7 271.344 822 258.044C800 258.044 778 258.044 755.9 258.044C721 258.044 686.1 258.044 651.2 258.044C643.1 258.044 635.1 258.044 627 258.044C640.3 271.344 653.7 284.744 667 298.044C667 259.844 667 221.644 667 183.344C667 177.944 667 172.444 667 167.044C667 145.444 648.7 127.044 627 127.044C614 127.044 601 127.044 588 127.044C556.6 127.044 525.3 127.044 493.9 127.044C456.1 127.044 418.3 127.044 380.5 127.044C347.8 127.044 315.1 127.044 282.5 127.044C266.6 127.044 250.6 126.744 234.7 127.044C234.5 127.044 234.2 127.044 234 127.044C212.4 127.044 194 145.344 194 167.044C194 205.244 194 243.444 194 281.744C194 287.144 194 292.644 194 298.044C207.3 284.744 220.7 271.344 234 258.044C212.2 258.044 190.3 258.044 168.5 258.044C133.7 258.044 98.9 258.044 64 258.044C56 258.044 48 258.044 40 258.044C53.3 271.344 66.7 284.744 80 298.044C80 268.944 80 239.944 80 210.844C80 164.544 80 118.244 80 71.9444C80 61.3444 80 50.7444 80 40.0444C66.7 53.3444 53.3 66.7444 40 80.0444C47 80.0444 53.9 80.0444 60.9 80.0444C79.9 80.0444 98.8 80.0444 117.8 80.0444C145.8 80.0444 173.9 80.0444 201.9 80.0444C236.1 80.0444 270.3 80.0444 304.6 80.0444C342.1 80.0444 379.6 80.0444 417 80.0444C454.8 80.0444 492.7 80.0444 530.5 80.0444C565.8 80.0444 601.1 80.0444 636.4 80.0444C666.2 80.0444 696 80.0444 725.9 80.0444C747.3 80.0444 768.8 80.0444 790.2 80.0444C800.4 80.0444 810.5 80.1444 820.7 80.0444C821.1 80.0444 821.6 80.0444 822 80.0444C842.9 80.0444 863 61.6444 862 40.0444C861 18.3444 844.4 0.0444444 822 0.0444444C815 0.0444444 808.1 0.0444444 801.1 0.0444444C782.1 0.0444444 763.2 0.0444444 744.2 0.0444444C716.2 0.0444444 688.1 0.0444444 660.1 0.0444444C625.9 0.0444444 591.7 0.0444444 557.4 0.0444444C519.9 0.0444444 482.4 0.0444444 445 0.0444444C407.2 0.0444444 369.3 0.0444444 331.5 0.0444444C296.2 0.0444444 260.9 0.0444444 225.6 0.0444444C195.8 0.0444444 166 0.0444444 136.1 0.0444444C114.7 0.0444444 93.2 0.0444444 71.8 0.0444444C61.6 0.0444444 51.5 -0.0555556 41.3 0.0444444C40.9 0.0444444 40.4 0.0444444 40 0.0444444C18.4 0.0444444 0 18.3444 0 40.0444C0 69.1444 0 98.1445 0 127.244C0 173.544 0 219.844 0 266.144C0 276.744 0 287.344 0 298.044C0 319.644 18.3 338.044 40 338.044C61.8 338.044 83.7 338.044 105.5 338.044C140.3 338.044 175.1 338.044 210 338.044C218 338.044 226 338.044 234 338.044C255.6 338.044 274 319.744 274 298.044C274 259.844 274 221.644 274 183.344C274 177.944 274 172.444 274 167.044C260.7 180.344 247.3 193.744 234 207.044C247 207.044 260 207.044 273 207.044C304.4 207.044 335.7 207.044 367.1 207.044C404.9 207.044 442.7 207.044 480.5 207.044C513.2 207.044 545.9 207.044 578.5 207.044C594.4 207.044 610.4 207.344 626.3 207.044C626.5 207.044 626.8 207.044 627 207.044C613.7 193.744 600.3 180.344 587 167.044C587 205.244 587 243.444 587 281.744C587 287.144 587 292.644 587 298.044C587 319.644 605.3 338.044 627 338.044C649 338.044 671 338.044 693.1 338.044C728 338.044 762.9 338.044 797.8 338.044C805.9 338.044 813.9 338.044 822 338.044C843.6 338.044 862 319.744 862 298.044C862 268.944 862 239.944 862 210.844C862 164.544 862 118.244 862 71.9444C862 61.3444 862 50.7444 862 40.0444C862 19.1444 843.6 -0.955556 822 0.0444444C800.3 1.04444 782 17.6444 782 40.0444Z" fill="white"/>
<path d="M587 167.044C587 180.744 587 194.544 587 208.244C587 241.044 587 273.844 587 306.644C587 346.444 587 386.144 587 425.944C587 460.044 587 494.144 587 528.344C587 544.744 587.3 561.144 587 577.544C587 578.644 586.9 579.744 586.8 580.944C587.3 577.444 587.8 573.844 588.2 570.344C587.8 573.144 587.1 575.844 586 578.444C587.3 575.244 588.7 572.044 590 568.844C589 571.044 587.9 572.944 586.5 574.844C588.6 572.144 590.7 569.444 592.8 566.744C591.3 568.544 589.8 570.144 588 571.644C590.7 569.544 593.4 567.444 596.1 565.344C594.2 566.744 592.4 567.844 590.2 568.744C593.4 567.444 596.6 566.044 599.8 564.744C598.1 565.344 596.4 565.844 594.5 566.144C598 565.644 601.6 565.144 605.1 564.744C593.2 565.944 580.8 564.944 568.8 564.944C541.5 564.944 514.1 564.944 486.8 564.944C453.4 564.944 420.1 564.944 386.7 564.944C358.1 564.944 329.4 564.944 300.8 564.944C287.1 564.944 273.3 565.244 259.6 564.944C258.5 564.944 257.5 564.844 256.4 564.744C259.9 565.244 263.5 565.744 267 566.144C265.1 565.844 263.4 565.344 261.7 564.744C264.9 566.044 268.1 567.444 271.3 568.744C269.1 567.844 267.2 566.644 265.3 565.344C268 567.444 270.7 569.544 273.4 571.644C271.5 570.144 269.9 568.544 268.4 566.744C270.5 569.444 272.6 572.144 274.7 574.844C273 572.544 271.6 570.144 270.4 567.544C271.7 570.744 273.1 573.944 274.4 577.144C273.6 574.944 273 572.644 272.7 570.344C273.2 573.844 273.7 577.444 274.1 580.944C272.9 566.844 273.9 552.244 273.9 538.144C273.9 505.544 273.9 472.944 273.9 440.444C273.9 400.644 273.9 360.944 273.9 321.144C273.9 286.844 273.9 252.544 273.9 218.244C273.9 201.444 274.3 184.644 273.9 167.844C273.9 167.644 273.9 167.344 273.9 167.144C260.6 180.444 247.2 193.844 233.9 207.144C246.9 207.144 259.9 207.144 272.9 207.144C304.3 207.144 335.6 207.144 367 207.144C404.8 207.144 442.6 207.144 480.4 207.144C513.1 207.144 545.8 207.144 578.4 207.144C594.3 207.144 610.3 207.444 626.2 207.144C626.4 207.144 626.7 207.144 626.9 207.144C647.8 207.144 667.9 188.744 666.9 167.144C665.9 145.444 649.3 127.144 626.9 127.144C613.9 127.144 600.9 127.144 587.9 127.144C556.5 127.144 525.2 127.144 493.8 127.144C456 127.144 418.2 127.144 380.4 127.144C347.7 127.144 315 127.144 282.4 127.144C266.5 127.144 250.5 126.844 234.6 127.144C234.4 127.144 234.1 127.144 233.9 127.144C212.3 127.144 193.9 145.444 193.9 167.144C193.9 194.744 193.9 222.444 193.9 250.044C193.9 306.444 193.9 362.844 193.9 419.244C193.9 465.244 193.9 511.344 193.9 557.344C193.9 569.744 193.2 582.144 196 594.344C202.6 623.544 230.5 644.744 260 645.044C263.9 645.044 267.8 645.044 271.7 645.044C317.6 645.044 363.5 645.044 409.3 645.044C462.2 645.044 515 645.044 567.9 645.044C579.2 645.044 590.4 645.144 601.7 645.044C631.9 644.644 660.4 621.944 665.3 591.544C666.4 584.644 666.9 579.444 666.9 572.844C666.9 535.044 666.9 497.244 666.9 459.444C666.9 402.144 666.9 344.744 666.9 287.444C666.9 249.244 666.9 210.944 666.9 172.744C666.9 170.844 666.9 168.944 666.9 167.044C666.9 146.144 648.5 126.044 626.9 127.044C605.3 128.044 587 144.644 587 167.044Z" fill="white"/>
<path d="M442.3 166.945C442.3 181.445 442.3 195.945 442.3 210.445C442.3 245.045 442.3 279.744 442.3 314.344C442.3 356.244 442.3 398.145 442.3 439.945C442.3 476.145 442.3 512.345 442.3 548.545C442.3 566.145 442 583.845 442.3 601.445C442.3 601.745 442.3 601.945 442.3 602.245C442.3 623.145 460.7 643.245 482.3 642.245C504 641.245 522.3 624.645 522.3 602.245C522.3 587.745 522.3 573.245 522.3 558.745C522.3 524.145 522.3 489.445 522.3 454.845C522.3 412.945 522.3 371.045 522.3 329.245C522.3 293.045 522.3 256.845 522.3 220.645C522.3 203.045 522.6 185.345 522.3 167.745C522.3 167.445 522.3 167.245 522.3 166.945C522.3 146.045 503.9 125.945 482.3 126.945C460.6 127.945 442.3 144.545 442.3 166.945Z" fill="white"/>
<path d="M166.1 206.944C183.7 206.944 201.3 206.944 219 206.944C261.1 206.944 303.3 206.944 345.4 206.944C396.5 206.944 447.6 206.944 498.7 206.944C542.7 206.944 586.7 206.944 630.7 206.944C652.1 206.944 673.5 207.244 694.8 206.944C695.1 206.944 695.4 206.944 695.7 206.944C716.6 206.944 736.7 188.544 735.7 166.944C734.7 145.244 718.1 126.944 695.7 126.944C678.1 126.944 660.5 126.944 642.8 126.944C600.7 126.944 558.5 126.944 516.4 126.944C465.3 126.944 414.2 126.944 363.1 126.944C319.1 126.944 275.1 126.944 231.1 126.944C209.7 126.944 188.3 126.644 167 126.944C166.7 126.944 166.4 126.944 166.1 126.944C145.2 126.944 125.1 145.344 126.1 166.944C127 188.644 143.6 206.944 166.1 206.944Z" fill="white"/>
</svg>
